{
	"asset":{
		"generator":"Khronos glTF Blender I/O v4.1.63",
		"version":"2.0"
	},
	"extensionsUsed":[
		"KHR_materials_unlit"
	],
	"scene":0,
	"scenes":[
		{
			"name":"Scene",
			"nodes":[
				0,
				1,
				2
			]
		}
	],
	"nodes":[
		{
			"mesh":0,
			"name":"Cube.015",
			"scale":[
				0.4159286320209503,
				0.4159286320209503,
				0.4159286320209503
			],
			"translation":[
				-0.0018664736999198794,
				0.5819626450538635,
				-0.043492190539836884
			]
		},
		{
			"mesh":1,
			"name":"Cube.012",
			"scale":[
				0.4159286320209503,
				0.4159286320209503,
				0.4159286320209503
			],
			"translation":[
				-0.0018664736999198794,
				0.8720458745956421,
				0.4547969698905945
			]
		},
		{
			"mesh":2,
			"name":"Cube.013",
			"scale":[
				0.4159286320209503,
				0.4159286320209503,
				0.4159286320209503
			],
			"translation":[
				-0.0018664736999198794,
				0.7768082618713379,
				0.44867804646492004
			]
		}
	],
	"materials":[
		{
			"doubleSided":true,
			"extensions":{
				"KHR_materials_unlit":{}
			},
			"name":"Yellow texture",
			"pbrMetallicRoughness":{
				"baseColorTexture":{
					"index":0
				},
				"metallicFactor":0,
				"roughnessFactor":0.9
			}
		}
	],
	"meshes":[
		{
			"name":"Cube.013",
			"primitives":[
				{
					"attributes":{
						"POSITION":0,
						"NORMAL":1,
						"TEXCOORD_0":2
					},
					"indices":3,
					"material":0
				}
			]
		},
		{
			"name":"Cube.017",
			"primitives":[
				{
					"attributes":{
						"POSITION":4,
						"NORMAL":5,
						"TEXCOORD_0":6
					},
					"indices":7,
					"material":0
				}
			]
		},
		{
			"name":"Cube.018",
			"primitives":[
				{
					"attributes":{
						"POSITION":8,
						"NORMAL":9,
						"TEXCOORD_0":10
					},
					"indices":11,
					"material":0
				}
			]
		}
	],
	"textures":[
		{
			"sampler":0,
			"source":0
		}
	],
	"images":[
		{
			"mimeType":"image/jpeg",
			"name":"Rubber_Duck",
			"uri":"Rubber_Duck.jpg"
		}
	],
	"accessors":[
		{
			"bufferView":0,
			"componentType":5126,
			"count":966,
			"max":[
				1.274198055267334,
				1.6161495447158813,
				1.5030443668365479
			],
			"min":[
				-1.2741979360580444,
				-1.3752020597457886,
				-2.1180949211120605
			],
			"type":"VEC3"
		},
		{
			"bufferView":1,
			"componentType":5126,
			"count":966,
			"type":"VEC3"
		},
		{
			"bufferView":2,
			"componentType":5126,
			"count":966,
			"type":"VEC2"
		},
		{
			"bufferView":3,
			"componentType":5123,
			"count":3840,
			"type":"SCALAR"
		},
		{
			"bufferView":4,
			"componentType":5126,
			"count":180,
			"max":[
				0.41350167989730835,
				0.24606460332870483,
				0.3433164358139038
			],
			"min":[
				-0.41350167989730835,
				-0.15987372398376465,
				-0.18135666847229004
			],
			"type":"VEC3"
		},
		{
			"bufferView":5,
			"componentType":5126,
			"count":180,
			"type":"VEC3"
		},
		{
			"bufferView":6,
			"componentType":5126,
			"count":180,
			"type":"VEC2"
		},
		{
			"bufferView":7,
			"componentType":5123,
			"count":576,
			"type":"SCALAR"
		},
		{
			"bufferView":8,
			"componentType":5126,
			"count":113,
			"max":[
				0.3600950837135315,
				0.08777028322219849,
				0.31738197803497314
			],
			"min":[
				-0.3600950837135315,
				-0.1295914649963379,
				-0.20596766471862793
			],
			"type":"VEC3"
		},
		{
			"bufferView":9,
			"componentType":5126,
			"count":113,
			"type":"VEC3"
		},
		{
			"bufferView":10,
			"componentType":5126,
			"count":113,
			"type":"VEC2"
		},
		{
			"bufferView":11,
			"componentType":5123,
			"count":360,
			"type":"SCALAR"
		}
	],
	"bufferViews":[
		{
			"buffer":0,
			"byteLength":11592,
			"byteOffset":0,
			"target":34962
		},
		{
			"buffer":0,
			"byteLength":11592,
			"byteOffset":11592,
			"target":34962
		},
		{
			"buffer":0,
			"byteLength":7728,
			"byteOffset":23184,
			"target":34962
		},
		{
			"buffer":0,
			"byteLength":7680,
			"byteOffset":30912,
			"target":34963
		},
		{
			"buffer":0,
			"byteLength":2160,
			"byteOffset":38592,
			"target":34962
		},
		{
			"buffer":0,
			"byteLength":2160,
			"byteOffset":40752,
			"target":34962
		},
		{
			"buffer":0,
			"byteLength":1440,
			"byteOffset":42912,
			"target":34962
		},
		{
			"buffer":0,
			"byteLength":1152,
			"byteOffset":44352,
			"target":34963
		},
		{
			"buffer":0,
			"byteLength":1356,
			"byteOffset":45504,
			"target":34962
		},
		{
			"buffer":0,
			"byteLength":1356,
			"byteOffset":46860,
			"target":34962
		},
		{
			"buffer":0,
			"byteLength":904,
			"byteOffset":48216,
			"target":34962
		},
		{
			"buffer":0,
			"byteLength":720,
			"byteOffset":49120,
			"target":34963
		}
	],
	"samplers":[
		{
			"magFilter":9729,
			"minFilter":9987
		}
	],
	"buffers":[
		{
			"byteLength":49840,
			"uri":"Rubber_Duck.bin"
		}
	]
}
